<svg xmlns="http://www.w3.org/2000/svg" viewBox="0 0 75.36 75.36"><defs><style>.cls-1{fill:#64c28e;}.cls-2{fill:#6ac593;}</style></defs><g id="Layer_2" data-name="Layer 2"><g id="Layer_1-2" data-name="Layer 1"><path class="cls-1" d="M33.11,0h9.14c.69.22,1.38.49,2.08.65C60.11,4.3,70.08,14,74.42,29.54c.33,1.18.63,2.38.94,3.57v9.52a17,17,0,0,0-.68,1.88c-3.43,14.94-12.51,24.68-27,29.4-1.77.58-3.6,1-5.4,1.45H32.73a15.61,15.61,0,0,0-1.88-.68C15,71,5.08,61.1.83,45.45.57,44.51.28,43.57,0,42.63v-9.9a12.8,12.8,0,0,0,.68-1.88A38.62,38.62,0,0,1,30.84.68,22.74,22.74,0,0,0,33.11,0Zm37,40.27c-.78-2.7-2.81-4.54-4.66-7-1.72,2.83-3.77,5.18-3.79,8.49,0,1.47-.1,2.86-1.79,3.91A65.58,65.58,0,0,1,57,39.39c-.84-2.51-3.34-3-4.94-4.6-.19-.19-.73-.11-1.1,0-3.48.54-6.76.28-9.56-2.19-.2-.18-.57-.17-.88-.25-.05,2.09,2.06,4.24,3.37,3.45,1.59-1,2.68.08,3.46,1,.38.44.07,1.91-.41,2.58A9.53,9.53,0,0,1,44,41.92c-2,1.14-4.07,2-6.1,3a11.19,11.19,0,0,0-1.25.82l.19.67L42.4,46a11.86,11.86,0,0,1-5,7.49c-3,2.08-5,4.42-3,8.32.64,1.21.08,2.14-1.26,2.66-.71.28-1.68.77-1.86,1.37-1,3.35-3.06,4.75-6.4,4.14-2.43-.43-9-7.3-8.72-9.69.35-2.89-1.28-4.9-2.22-7.25a8.62,8.62,0,0,1-.78-2.5,6.07,6.07,0,0,0-4.63-5.52c-1.27-.36-2.84-.95-3.51-1.95-2.81-4.2-1.35-13.43,2.58-16,1.89-1.24,3.86-2.86,4.12-5.77.11-1.25.8-3.57,3.41-2.69.32.11,1.36-.78,1.44-1.3a1.79,1.79,0,0,1,2-1.73l1.5-.69,5.16-2.72L23.6,11C25.51,9.93,27,8.9,28.68,8.09c2.51-1.24,5.09-2.17,7.62,0a.79.79,0,0,0,.51.23,13.93,13.93,0,0,0,7.42-2.67c.26-.2-.18-1.28-.3-1.95a1.11,1.11,0,0,0-.07-.22l1.5-.21a5.35,5.35,0,0,0-2-.68c-4.42-.62-8.72-.74-13,1.1-3.22,1.38-7,1.46-10.08,3.1C8.63,13.08,2.83,23.25,2.29,36.2c-.84,20.11,14,36.31,33.65,36.88,14.51.42,25.73-5.46,33-18.3,1.77-3.13,2.91-6.16.54-9.47,0-.05-.1-.12-.08-.17.15-.48.32-1,.48-1.45l.44.06c-.1-1.18-.19-2.36-.29-3.53l2.14,5.89a33,33,0,0,0-.4-17.43c-.22.44-.07.95-.24,1.31-.88,1.9-.26,3.49.61,5.25.46.94,0,2.33,0,3.67L70.2,38.2ZM22.34,23.44l-.7.19c-.4-.68-.86-1.34-1.21-2.05-.81-1.64-2.08-2-3.58-1s-2.91,2.11-4.47,3.26l4.31.39c1.26.11,1.87.6,1.42,2a1.55,1.55,0,0,0,.27,1.31c.92.92,2,1.71,2.95,2.53,1.72-1.51,1.69-1.43,3.65-.54a10.56,10.56,0,0,0,3.42.94c2.51.21,3.07-.41,3.29-3.3-2.32-.27-5.2.08-5.11-4.11l-2.17,3-2.05-6-.62.18ZM31,33.56c-.69,3.2,2.44,9.47,5.18,10Z"/><path class="cls-1" d="M70.1,40.27l.1-2.07,1.94.71c0-1.34.5-2.73,0-3.67-.87-1.76-1.49-3.35-.61-5.25.17-.36,0-.87.24-1.31a33,33,0,0,1,.4,17.43c-.75-2-1.44-4-2.14-5.89Z"/><path class="cls-1" d="M31,33.56l5.18,10C33.46,43,30.33,36.76,31,33.56Z"/><path class="cls-1" d="M40.8,20.67c.28,1,.44,1.57.63,2.17.27.87.6,1.72.79,2.6,0,.18-.54.69-.68.64-.5-.18-1.14-.43-1.34-.85a21,21,0,0,1-1-2.95C38.81,21.1,39.63,20.49,40.8,20.67Z"/><path class="cls-2" d="M36.62,67a4.67,4.67,0,0,1,3.51-4.48c.33-.07,1.23.81,1.18.93a39.67,39.67,0,0,1-2.41,4.44,1.53,1.53,0,0,1-1.45.24C37,67.92,36.77,67.26,36.62,67Z"/></g></g></svg>